<?xml version="1.0" encoding="utf-8"?>
<!DOCTYPE svg PUBLIC "-//W3C//DTD SVG 20010904//EN" "http://www.w3.org/TR/2001/REC-SVG-20010904/DTD/svg10.dtd">
<svg xmlns="http://www.w3.org/2000/svg" xml:space="preserve" xmlns:xlink="http://www.w3.org/1999/xlink" width="468" height="468" viewBox="0 0 468 468">
<desc></desc>
<rect width="468" height="468" fill="#ffffff" cx="0" cy="0" />
<defs>
<rect id="p" width="12" height="12" />
</defs>
<g fill="#000000">
<use x="12" y="12" xlink:href="#p" />
<use x="24" y="12" xlink:href="#p" />
<use x="36" y="12" xlink:href="#p" />
<use x="48" y="12" xlink:href="#p" />
<use x="60" y="12" xlink:href="#p" />
<use x="72" y="12" xlink:href="#p" />
<use x="84" y="12" xlink:href="#p" />
<use x="120" y="12" xlink:href="#p" />
<use x="132" y="12" xlink:href="#p" />
<use x="156" y="12" xlink:href="#p" />
<use x="180" y="12" xlink:href="#p" />
<use x="228" y="12" xlink:href="#p" />
<use x="324" y="12" xlink:href="#p" />
<use x="348" y="12" xlink:href="#p" />
<use x="372" y="12" xlink:href="#p" />
<use x="384" y="12" xlink:href="#p" />
<use x="396" y="12" xlink:href="#p" />
<use x="408" y="12" xlink:href="#p" />
<use x="420" y="12" xlink:href="#p" />
<use x="432" y="12" xlink:href="#p" />
<use x="444" y="12" xlink:href="#p" />
<use x="12" y="24" xlink:href="#p" />
<use x="84" y="24" xlink:href="#p" />
<use x="120" y="24" xlink:href="#p" />
<use x="144" y="24" xlink:href="#p" />
<use x="180" y="24" xlink:href="#p" />
<use x="192" y="24" xlink:href="#p" />
<use x="216" y="24" xlink:href="#p" />
<use x="228" y="24" xlink:href="#p" />
<use x="240" y="24" xlink:href="#p" />
<use x="252" y="24" xlink:href="#p" />
<use x="264" y="24" xlink:href="#p" />
<use x="276" y="24" xlink:href="#p" />
<use x="288" y="24" xlink:href="#p" />
<use x="348" y="24" xlink:href="#p" />
<use x="372" y="24" xlink:href="#p" />
<use x="444" y="24" xlink:href="#p" />
<use x="12" y="36" xlink:href="#p" />
<use x="36" y="36" xlink:href="#p" />
<use x="48" y="36" xlink:href="#p" />
<use x="60" y="36" xlink:href="#p" />
<use x="84" y="36" xlink:href="#p" />
<use x="108" y="36" xlink:href="#p" />
<use x="132" y="36" xlink:href="#p" />
<use x="144" y="36" xlink:href="#p" />
<use x="168" y="36" xlink:href="#p" />
<use x="180" y="36" xlink:href="#p" />
<use x="192" y="36" xlink:href="#p" />
<use x="204" y="36" xlink:href="#p" />
<use x="216" y="36" xlink:href="#p" />
<use x="228" y="36" xlink:href="#p" />
<use x="276" y="36" xlink:href="#p" />
<use x="288" y="36" xlink:href="#p" />
<use x="300" y="36" xlink:href="#p" />
<use x="312" y="36" xlink:href="#p" />
<use x="324" y="36" xlink:href="#p" />
<use x="336" y="36" xlink:href="#p" />
<use x="372" y="36" xlink:href="#p" />
<use x="396" y="36" xlink:href="#p" />
<use x="408" y="36" xlink:href="#p" />
<use x="420" y="36" xlink:href="#p" />
<use x="444" y="36" xlink:href="#p" />
<use x="12" y="48" xlink:href="#p" />
<use x="36" y="48" xlink:href="#p" />
<use x="48" y="48" xlink:href="#p" />
<use x="60" y="48" xlink:href="#p" />
<use x="84" y="48" xlink:href="#p" />
<use x="108" y="48" xlink:href="#p" />
<use x="120" y="48" xlink:href="#p" />
<use x="132" y="48" xlink:href="#p" />
<use x="168" y="48" xlink:href="#p" />
<use x="192" y="48" xlink:href="#p" />
<use x="204" y="48" xlink:href="#p" />
<use x="216" y="48" xlink:href="#p" />
<use x="240" y="48" xlink:href="#p" />
<use x="276" y="48" xlink:href="#p" />
<use x="312" y="48" xlink:href="#p" />
<use x="348" y="48" xlink:href="#p" />
<use x="372" y="48" xlink:href="#p" />
<use x="396" y="48" xlink:href="#p" />
<use x="408" y="48" xlink:href="#p" />
<use x="420" y="48" xlink:href="#p" />
<use x="444" y="48" xlink:href="#p" />
<use x="12" y="60" xlink:href="#p" />
<use x="36" y="60" xlink:href="#p" />
<use x="48" y="60" xlink:href="#p" />
<use x="60" y="60" xlink:href="#p" />
<use x="84" y="60" xlink:href="#p" />
<use x="132" y="60" xlink:href="#p" />
<use x="144" y="60" xlink:href="#p" />
<use x="156" y="60" xlink:href="#p" />
<use x="180" y="60" xlink:href="#p" />
<use x="192" y="60" xlink:href="#p" />
<use x="204" y="60" xlink:href="#p" />
<use x="240" y="60" xlink:href="#p" />
<use x="276" y="60" xlink:href="#p" />
<use x="312" y="60" xlink:href="#p" />
<use x="372" y="60" xlink:href="#p" />
<use x="396" y="60" xlink:href="#p" />
<use x="408" y="60" xlink:href="#p" />
<use x="420" y="60" xlink:href="#p" />
<use x="444" y="60" xlink:href="#p" />
<use x="12" y="72" xlink:href="#p" />
<use x="84" y="72" xlink:href="#p" />
<use x="300" y="72" xlink:href="#p" />
<use x="312" y="72" xlink:href="#p" />
<use x="324" y="72" xlink:href="#p" />
<use x="372" y="72" xlink:href="#p" />
<use x="444" y="72" xlink:href="#p" />
<use x="12" y="84" xlink:href="#p" />
<use x="24" y="84" xlink:href="#p" />
<use x="36" y="84" xlink:href="#p" />
<use x="48" y="84" xlink:href="#p" />
<use x="60" y="84" xlink:href="#p" />
<use x="72" y="84" xlink:href="#p" />
<use x="84" y="84" xlink:href="#p" />
<use x="108" y="84" xlink:href="#p" />
<use x="132" y="84" xlink:href="#p" />
<use x="156" y="84" xlink:href="#p" />
<use x="180" y="84" xlink:href="#p" />
<use x="204" y="84" xlink:href="#p" />
<use x="228" y="84" xlink:href="#p" />
<use x="252" y="84" xlink:href="#p" />
<use x="276" y="84" xlink:href="#p" />
<use x="300" y="84" xlink:href="#p" />
<use x="324" y="84" xlink:href="#p" />
<use x="348" y="84" xlink:href="#p" />
<use x="372" y="84" xlink:href="#p" />
<use x="384" y="84" xlink:href="#p" />
<use x="396" y="84" xlink:href="#p" />
<use x="408" y="84" xlink:href="#p" />
<use x="420" y="84" xlink:href="#p" />
<use x="432" y="84" xlink:href="#p" />
<use x="444" y="84" xlink:href="#p" />
<use x="132" y="96" xlink:href="#p" />
<use x="144" y="96" xlink:href="#p" />
<use x="156" y="96" xlink:href="#p" />
<use x="192" y="96" xlink:href="#p" />
<use x="204" y="96" xlink:href="#p" />
<use x="216" y="96" xlink:href="#p" />
<use x="228" y="96" xlink:href="#p" />
<use x="276" y="96" xlink:href="#p" />
<use x="288" y="96" xlink:href="#p" />
<use x="300" y="96" xlink:href="#p" />
<use x="312" y="96" xlink:href="#p" />
<use x="336" y="96" xlink:href="#p" />
<use x="348" y="96" xlink:href="#p" />
<use x="48" y="108" xlink:href="#p" />
<use x="60" y="108" xlink:href="#p" />
<use x="84" y="108" xlink:href="#p" />
<use x="96" y="108" xlink:href="#p" />
<use x="156" y="108" xlink:href="#p" />
<use x="168" y="108" xlink:href="#p" />
<use x="192" y="108" xlink:href="#p" />
<use x="204" y="108" xlink:href="#p" />
<use x="276" y="108" xlink:href="#p" />
<use x="300" y="108" xlink:href="#p" />
<use x="324" y="108" xlink:href="#p" />
<use x="348" y="108" xlink:href="#p" />
<use x="408" y="108" xlink:href="#p" />
<use x="420" y="108" xlink:href="#p" />
<use x="24" y="120" xlink:href="#p" />
<use x="36" y="120" xlink:href="#p" />
<use x="48" y="120" xlink:href="#p" />
<use x="60" y="120" xlink:href="#p" />
<use x="72" y="120" xlink:href="#p" />
<use x="108" y="120" xlink:href="#p" />
<use x="132" y="120" xlink:href="#p" />
<use x="204" y="120" xlink:href="#p" />
<use x="228" y="120" xlink:href="#p" />
<use x="264" y="120" xlink:href="#p" />
<use x="312" y="120" xlink:href="#p" />
<use x="336" y="120" xlink:href="#p" />
<use x="384" y="120" xlink:href="#p" />
<use x="396" y="120" xlink:href="#p" />
<use x="408" y="120" xlink:href="#p" />
<use x="420" y="120" xlink:href="#p" />
<use x="24" y="132" xlink:href="#p" />
<use x="36" y="132" xlink:href="#p" />
<use x="72" y="132" xlink:href="#p" />
<use x="84" y="132" xlink:href="#p" />
<use x="96" y="132" xlink:href="#p" />
<use x="120" y="132" xlink:href="#p" />
<use x="192" y="132" xlink:href="#p" />
<use x="204" y="132" xlink:href="#p" />
<use x="252" y="132" xlink:href="#p" />
<use x="276" y="132" xlink:href="#p" />
<use x="300" y="132" xlink:href="#p" />
<use x="312" y="132" xlink:href="#p" />
<use x="336" y="132" xlink:href="#p" />
<use x="360" y="132" xlink:href="#p" />
<use x="372" y="132" xlink:href="#p" />
<use x="384" y="132" xlink:href="#p" />
<use x="408" y="132" xlink:href="#p" />
<use x="444" y="132" xlink:href="#p" />
<use x="36" y="144" xlink:href="#p" />
<use x="48" y="144" xlink:href="#p" />
<use x="60" y="144" xlink:href="#p" />
<use x="168" y="144" xlink:href="#p" />
<use x="180" y="144" xlink:href="#p" />
<use x="192" y="144" xlink:href="#p" />
<use x="204" y="144" xlink:href="#p" />
<use x="216" y="144" xlink:href="#p" />
<use x="228" y="144" xlink:href="#p" />
<use x="240" y="144" xlink:href="#p" />
<use x="252" y="144" xlink:href="#p" />
<use x="264" y="144" xlink:href="#p" />
<use x="276" y="144" xlink:href="#p" />
<use x="300" y="144" xlink:href="#p" />
<use x="324" y="144" xlink:href="#p" />
<use x="360" y="144" xlink:href="#p" />
<use x="372" y="144" xlink:href="#p" />
<use x="384" y="144" xlink:href="#p" />
<use x="420" y="144" xlink:href="#p" />
<use x="432" y="144" xlink:href="#p" />
<use x="444" y="144" xlink:href="#p" />
<use x="12" y="156" xlink:href="#p" />
<use x="24" y="156" xlink:href="#p" />
<use x="36" y="156" xlink:href="#p" />
<use x="48" y="156" xlink:href="#p" />
<use x="60" y="156" xlink:href="#p" />
<use x="72" y="156" xlink:href="#p" />
<use x="84" y="156" xlink:href="#p" />
<use x="96" y="156" xlink:href="#p" />
<use x="108" y="156" xlink:href="#p" />
<use x="144" y="156" xlink:href="#p" />
<use x="156" y="156" xlink:href="#p" />
<use x="168" y="156" xlink:href="#p" />
<use x="204" y="156" xlink:href="#p" />
<use x="216" y="156" xlink:href="#p" />
<use x="228" y="156" xlink:href="#p" />
<use x="240" y="156" xlink:href="#p" />
<use x="252" y="156" xlink:href="#p" />
<use x="300" y="156" xlink:href="#p" />
<use x="336" y="156" xlink:href="#p" />
<use x="348" y="156" xlink:href="#p" />
<use x="372" y="156" xlink:href="#p" />
<use x="384" y="156" xlink:href="#p" />
<use x="408" y="156" xlink:href="#p" />
<use x="444" y="156" xlink:href="#p" />
<use x="36" y="168" xlink:href="#p" />
<use x="48" y="168" xlink:href="#p" />
<use x="60" y="168" xlink:href="#p" />
<use x="72" y="168" xlink:href="#p" />
<use x="108" y="168" xlink:href="#p" />
<use x="120" y="168" xlink:href="#p" />
<use x="156" y="168" xlink:href="#p" />
<use x="168" y="168" xlink:href="#p" />
<use x="180" y="168" xlink:href="#p" />
<use x="204" y="168" xlink:href="#p" />
<use x="216" y="168" xlink:href="#p" />
<use x="228" y="168" xlink:href="#p" />
<use x="240" y="168" xlink:href="#p" />
<use x="252" y="168" xlink:href="#p" />
<use x="324" y="168" xlink:href="#p" />
<use x="336" y="168" xlink:href="#p" />
<use x="360" y="168" xlink:href="#p" />
<use x="384" y="168" xlink:href="#p" />
<use x="396" y="168" xlink:href="#p" />
<use x="420" y="168" xlink:href="#p" />
<use x="432" y="168" xlink:href="#p" />
<use x="36" y="180" xlink:href="#p" />
<use x="48" y="180" xlink:href="#p" />
<use x="84" y="180" xlink:href="#p" />
<use x="120" y="180" xlink:href="#p" />
<use x="132" y="180" xlink:href="#p" />
<use x="144" y="180" xlink:href="#p" />
<use x="216" y="180" xlink:href="#p" />
<use x="228" y="180" xlink:href="#p" />
<use x="252" y="180" xlink:href="#p" />
<use x="264" y="180" xlink:href="#p" />
<use x="276" y="180" xlink:href="#p" />
<use x="324" y="180" xlink:href="#p" />
<use x="336" y="180" xlink:href="#p" />
<use x="372" y="180" xlink:href="#p" />
<use x="384" y="180" xlink:href="#p" />
<use x="396" y="180" xlink:href="#p" />
<use x="408" y="180" xlink:href="#p" />
<use x="420" y="180" xlink:href="#p" />
<use x="432" y="180" xlink:href="#p" />
<use x="444" y="180" xlink:href="#p" />
<use x="24" y="192" xlink:href="#p" />
<use x="72" y="192" xlink:href="#p" />
<use x="96" y="192" xlink:href="#p" />
<use x="120" y="192" xlink:href="#p" />
<use x="156" y="192" xlink:href="#p" />
<use x="180" y="192" xlink:href="#p" />
<use x="192" y="192" xlink:href="#p" />
<use x="204" y="192" xlink:href="#p" />
<use x="240" y="192" xlink:href="#p" />
<use x="276" y="192" xlink:href="#p" />
<use x="300" y="192" xlink:href="#p" />
<use x="324" y="192" xlink:href="#p" />
<use x="336" y="192" xlink:href="#p" />
<use x="360" y="192" xlink:href="#p" />
<use x="396" y="192" xlink:href="#p" />
<use x="408" y="192" xlink:href="#p" />
<use x="420" y="192" xlink:href="#p" />
<use x="432" y="192" xlink:href="#p" />
<use x="444" y="192" xlink:href="#p" />
<use x="36" y="204" xlink:href="#p" />
<use x="72" y="204" xlink:href="#p" />
<use x="84" y="204" xlink:href="#p" />
<use x="108" y="204" xlink:href="#p" />
<use x="144" y="204" xlink:href="#p" />
<use x="156" y="204" xlink:href="#p" />
<use x="204" y="204" xlink:href="#p" />
<use x="216" y="204" xlink:href="#p" />
<use x="228" y="204" xlink:href="#p" />
<use x="240" y="204" xlink:href="#p" />
<use x="252" y="204" xlink:href="#p" />
<use x="264" y="204" xlink:href="#p" />
<use x="300" y="204" xlink:href="#p" />
<use x="312" y="204" xlink:href="#p" />
<use x="348" y="204" xlink:href="#p" />
<use x="360" y="204" xlink:href="#p" />
<use x="372" y="204" xlink:href="#p" />
<use x="384" y="204" xlink:href="#p" />
<use x="420" y="204" xlink:href="#p" />
<use x="432" y="204" xlink:href="#p" />
<use x="444" y="204" xlink:href="#p" />
<use x="12" y="216" xlink:href="#p" />
<use x="24" y="216" xlink:href="#p" />
<use x="48" y="216" xlink:href="#p" />
<use x="60" y="216" xlink:href="#p" />
<use x="72" y="216" xlink:href="#p" />
<use x="108" y="216" xlink:href="#p" />
<use x="120" y="216" xlink:href="#p" />
<use x="132" y="216" xlink:href="#p" />
<use x="144" y="216" xlink:href="#p" />
<use x="156" y="216" xlink:href="#p" />
<use x="180" y="216" xlink:href="#p" />
<use x="204" y="216" xlink:href="#p" />
<use x="228" y="216" xlink:href="#p" />
<use x="240" y="216" xlink:href="#p" />
<use x="252" y="216" xlink:href="#p" />
<use x="264" y="216" xlink:href="#p" />
<use x="276" y="216" xlink:href="#p" />
<use x="288" y="216" xlink:href="#p" />
<use x="336" y="216" xlink:href="#p" />
<use x="384" y="216" xlink:href="#p" />
<use x="420" y="216" xlink:href="#p" />
<use x="432" y="216" xlink:href="#p" />
<use x="48" y="228" xlink:href="#p" />
<use x="60" y="228" xlink:href="#p" />
<use x="84" y="228" xlink:href="#p" />
<use x="108" y="228" xlink:href="#p" />
<use x="132" y="228" xlink:href="#p" />
<use x="144" y="228" xlink:href="#p" />
<use x="192" y="228" xlink:href="#p" />
<use x="216" y="228" xlink:href="#p" />
<use x="276" y="228" xlink:href="#p" />
<use x="288" y="228" xlink:href="#p" />
<use x="300" y="228" xlink:href="#p" />
<use x="324" y="228" xlink:href="#p" />
<use x="336" y="228" xlink:href="#p" />
<use x="348" y="228" xlink:href="#p" />
<use x="396" y="228" xlink:href="#p" />
<use x="408" y="228" xlink:href="#p" />
<use x="444" y="228" xlink:href="#p" />
<use x="24" y="240" xlink:href="#p" />
<use x="36" y="240" xlink:href="#p" />
<use x="48" y="240" xlink:href="#p" />
<use x="60" y="240" xlink:href="#p" />
<use x="72" y="240" xlink:href="#p" />
<use x="96" y="240" xlink:href="#p" />
<use x="120" y="240" xlink:href="#p" />
<use x="132" y="240" xlink:href="#p" />
<use x="156" y="240" xlink:href="#p" />
<use x="168" y="240" xlink:href="#p" />
<use x="180" y="240" xlink:href="#p" />
<use x="204" y="240" xlink:href="#p" />
<use x="216" y="240" xlink:href="#p" />
<use x="228" y="240" xlink:href="#p" />
<use x="276" y="240" xlink:href="#p" />
<use x="300" y="240" xlink:href="#p" />
<use x="312" y="240" xlink:href="#p" />
<use x="324" y="240" xlink:href="#p" />
<use x="396" y="240" xlink:href="#p" />
<use x="408" y="240" xlink:href="#p" />
<use x="444" y="240" xlink:href="#p" />
<use x="12" y="252" xlink:href="#p" />
<use x="24" y="252" xlink:href="#p" />
<use x="36" y="252" xlink:href="#p" />
<use x="60" y="252" xlink:href="#p" />
<use x="72" y="252" xlink:href="#p" />
<use x="84" y="252" xlink:href="#p" />
<use x="108" y="252" xlink:href="#p" />
<use x="120" y="252" xlink:href="#p" />
<use x="132" y="252" xlink:href="#p" />
<use x="144" y="252" xlink:href="#p" />
<use x="180" y="252" xlink:href="#p" />
<use x="216" y="252" xlink:href="#p" />
<use x="228" y="252" xlink:href="#p" />
<use x="240" y="252" xlink:href="#p" />
<use x="264" y="252" xlink:href="#p" />
<use x="324" y="252" xlink:href="#p" />
<use x="348" y="252" xlink:href="#p" />
<use x="360" y="252" xlink:href="#p" />
<use x="372" y="252" xlink:href="#p" />
<use x="396" y="252" xlink:href="#p" />
<use x="408" y="252" xlink:href="#p" />
<use x="432" y="252" xlink:href="#p" />
<use x="12" y="264" xlink:href="#p" />
<use x="108" y="264" xlink:href="#p" />
<use x="120" y="264" xlink:href="#p" />
<use x="132" y="264" xlink:href="#p" />
<use x="144" y="264" xlink:href="#p" />
<use x="168" y="264" xlink:href="#p" />
<use x="180" y="264" xlink:href="#p" />
<use x="204" y="264" xlink:href="#p" />
<use x="228" y="264" xlink:href="#p" />
<use x="240" y="264" xlink:href="#p" />
<use x="252" y="264" xlink:href="#p" />
<use x="264" y="264" xlink:href="#p" />
<use x="288" y="264" xlink:href="#p" />
<use x="324" y="264" xlink:href="#p" />
<use x="336" y="264" xlink:href="#p" />
<use x="348" y="264" xlink:href="#p" />
<use x="384" y="264" xlink:href="#p" />
<use x="396" y="264" xlink:href="#p" />
<use x="432" y="264" xlink:href="#p" />
<use x="12" y="276" xlink:href="#p" />
<use x="36" y="276" xlink:href="#p" />
<use x="48" y="276" xlink:href="#p" />
<use x="72" y="276" xlink:href="#p" />
<use x="84" y="276" xlink:href="#p" />
<use x="108" y="276" xlink:href="#p" />
<use x="156" y="276" xlink:href="#p" />
<use x="180" y="276" xlink:href="#p" />
<use x="204" y="276" xlink:href="#p" />
<use x="228" y="276" xlink:href="#p" />
<use x="240" y="276" xlink:href="#p" />
<use x="252" y="276" xlink:href="#p" />
<use x="336" y="276" xlink:href="#p" />
<use x="396" y="276" xlink:href="#p" />
<use x="408" y="276" xlink:href="#p" />
<use x="444" y="276" xlink:href="#p" />
<use x="12" y="288" xlink:href="#p" />
<use x="36" y="288" xlink:href="#p" />
<use x="60" y="288" xlink:href="#p" />
<use x="108" y="288" xlink:href="#p" />
<use x="120" y="288" xlink:href="#p" />
<use x="192" y="288" xlink:href="#p" />
<use x="204" y="288" xlink:href="#p" />
<use x="216" y="288" xlink:href="#p" />
<use x="240" y="288" xlink:href="#p" />
<use x="276" y="288" xlink:href="#p" />
<use x="288" y="288" xlink:href="#p" />
<use x="336" y="288" xlink:href="#p" />
<use x="348" y="288" xlink:href="#p" />
<use x="384" y="288" xlink:href="#p" />
<use x="408" y="288" xlink:href="#p" />
<use x="420" y="288" xlink:href="#p" />
<use x="24" y="300" xlink:href="#p" />
<use x="48" y="300" xlink:href="#p" />
<use x="84" y="300" xlink:href="#p" />
<use x="96" y="300" xlink:href="#p" />
<use x="120" y="300" xlink:href="#p" />
<use x="132" y="300" xlink:href="#p" />
<use x="144" y="300" xlink:href="#p" />
<use x="168" y="300" xlink:href="#p" />
<use x="180" y="300" xlink:href="#p" />
<use x="204" y="300" xlink:href="#p" />
<use x="216" y="300" xlink:href="#p" />
<use x="252" y="300" xlink:href="#p" />
<use x="264" y="300" xlink:href="#p" />
<use x="276" y="300" xlink:href="#p" />
<use x="288" y="300" xlink:href="#p" />
<use x="300" y="300" xlink:href="#p" />
<use x="348" y="300" xlink:href="#p" />
<use x="360" y="300" xlink:href="#p" />
<use x="372" y="300" xlink:href="#p" />
<use x="432" y="300" xlink:href="#p" />
<use x="444" y="300" xlink:href="#p" />
<use x="12" y="312" xlink:href="#p" />
<use x="48" y="312" xlink:href="#p" />
<use x="60" y="312" xlink:href="#p" />
<use x="96" y="312" xlink:href="#p" />
<use x="108" y="312" xlink:href="#p" />
<use x="120" y="312" xlink:href="#p" />
<use x="156" y="312" xlink:href="#p" />
<use x="168" y="312" xlink:href="#p" />
<use x="180" y="312" xlink:href="#p" />
<use x="216" y="312" xlink:href="#p" />
<use x="300" y="312" xlink:href="#p" />
<use x="312" y="312" xlink:href="#p" />
<use x="336" y="312" xlink:href="#p" />
<use x="348" y="312" xlink:href="#p" />
<use x="396" y="312" xlink:href="#p" />
<use x="408" y="312" xlink:href="#p" />
<use x="420" y="312" xlink:href="#p" />
<use x="432" y="312" xlink:href="#p" />
<use x="12" y="324" xlink:href="#p" />
<use x="24" y="324" xlink:href="#p" />
<use x="48" y="324" xlink:href="#p" />
<use x="84" y="324" xlink:href="#p" />
<use x="96" y="324" xlink:href="#p" />
<use x="132" y="324" xlink:href="#p" />
<use x="144" y="324" xlink:href="#p" />
<use x="192" y="324" xlink:href="#p" />
<use x="228" y="324" xlink:href="#p" />
<use x="252" y="324" xlink:href="#p" />
<use x="336" y="324" xlink:href="#p" />
<use x="372" y="324" xlink:href="#p" />
<use x="384" y="324" xlink:href="#p" />
<use x="420" y="324" xlink:href="#p" />
<use x="432" y="324" xlink:href="#p" />
<use x="444" y="324" xlink:href="#p" />
<use x="12" y="336" xlink:href="#p" />
<use x="36" y="336" xlink:href="#p" />
<use x="120" y="336" xlink:href="#p" />
<use x="144" y="336" xlink:href="#p" />
<use x="180" y="336" xlink:href="#p" />
<use x="204" y="336" xlink:href="#p" />
<use x="240" y="336" xlink:href="#p" />
<use x="252" y="336" xlink:href="#p" />
<use x="276" y="336" xlink:href="#p" />
<use x="288" y="336" xlink:href="#p" />
<use x="360" y="336" xlink:href="#p" />
<use x="384" y="336" xlink:href="#p" />
<use x="396" y="336" xlink:href="#p" />
<use x="408" y="336" xlink:href="#p" />
<use x="420" y="336" xlink:href="#p" />
<use x="432" y="336" xlink:href="#p" />
<use x="444" y="336" xlink:href="#p" />
<use x="12" y="348" xlink:href="#p" />
<use x="36" y="348" xlink:href="#p" />
<use x="48" y="348" xlink:href="#p" />
<use x="72" y="348" xlink:href="#p" />
<use x="84" y="348" xlink:href="#p" />
<use x="120" y="348" xlink:href="#p" />
<use x="132" y="348" xlink:href="#p" />
<use x="192" y="348" xlink:href="#p" />
<use x="240" y="348" xlink:href="#p" />
<use x="264" y="348" xlink:href="#p" />
<use x="300" y="348" xlink:href="#p" />
<use x="312" y="348" xlink:href="#p" />
<use x="348" y="348" xlink:href="#p" />
<use x="360" y="348" xlink:href="#p" />
<use x="372" y="348" xlink:href="#p" />
<use x="384" y="348" xlink:href="#p" />
<use x="396" y="348" xlink:href="#p" />
<use x="420" y="348" xlink:href="#p" />
<use x="432" y="348" xlink:href="#p" />
<use x="108" y="360" xlink:href="#p" />
<use x="120" y="360" xlink:href="#p" />
<use x="144" y="360" xlink:href="#p" />
<use x="156" y="360" xlink:href="#p" />
<use x="240" y="360" xlink:href="#p" />
<use x="264" y="360" xlink:href="#p" />
<use x="348" y="360" xlink:href="#p" />
<use x="396" y="360" xlink:href="#p" />
<use x="408" y="360" xlink:href="#p" />
<use x="420" y="360" xlink:href="#p" />
<use x="432" y="360" xlink:href="#p" />
<use x="12" y="372" xlink:href="#p" />
<use x="24" y="372" xlink:href="#p" />
<use x="36" y="372" xlink:href="#p" />
<use x="48" y="372" xlink:href="#p" />
<use x="60" y="372" xlink:href="#p" />
<use x="72" y="372" xlink:href="#p" />
<use x="84" y="372" xlink:href="#p" />
<use x="108" y="372" xlink:href="#p" />
<use x="156" y="372" xlink:href="#p" />
<use x="168" y="372" xlink:href="#p" />
<use x="180" y="372" xlink:href="#p" />
<use x="216" y="372" xlink:href="#p" />
<use x="228" y="372" xlink:href="#p" />
<use x="288" y="372" xlink:href="#p" />
<use x="348" y="372" xlink:href="#p" />
<use x="372" y="372" xlink:href="#p" />
<use x="396" y="372" xlink:href="#p" />
<use x="408" y="372" xlink:href="#p" />
<use x="420" y="372" xlink:href="#p" />
<use x="444" y="372" xlink:href="#p" />
<use x="12" y="384" xlink:href="#p" />
<use x="84" y="384" xlink:href="#p" />
<use x="120" y="384" xlink:href="#p" />
<use x="132" y="384" xlink:href="#p" />
<use x="168" y="384" xlink:href="#p" />
<use x="216" y="384" xlink:href="#p" />
<use x="228" y="384" xlink:href="#p" />
<use x="300" y="384" xlink:href="#p" />
<use x="312" y="384" xlink:href="#p" />
<use x="336" y="384" xlink:href="#p" />
<use x="348" y="384" xlink:href="#p" />
<use x="396" y="384" xlink:href="#p" />
<use x="408" y="384" xlink:href="#p" />
<use x="444" y="384" xlink:href="#p" />
<use x="12" y="396" xlink:href="#p" />
<use x="36" y="396" xlink:href="#p" />
<use x="48" y="396" xlink:href="#p" />
<use x="60" y="396" xlink:href="#p" />
<use x="84" y="396" xlink:href="#p" />
<use x="108" y="396" xlink:href="#p" />
<use x="144" y="396" xlink:href="#p" />
<use x="168" y="396" xlink:href="#p" />
<use x="216" y="396" xlink:href="#p" />
<use x="240" y="396" xlink:href="#p" />
<use x="300" y="396" xlink:href="#p" />
<use x="324" y="396" xlink:href="#p" />
<use x="336" y="396" xlink:href="#p" />
<use x="348" y="396" xlink:href="#p" />
<use x="360" y="396" xlink:href="#p" />
<use x="372" y="396" xlink:href="#p" />
<use x="384" y="396" xlink:href="#p" />
<use x="396" y="396" xlink:href="#p" />
<use x="12" y="408" xlink:href="#p" />
<use x="36" y="408" xlink:href="#p" />
<use x="48" y="408" xlink:href="#p" />
<use x="60" y="408" xlink:href="#p" />
<use x="84" y="408" xlink:href="#p" />
<use x="108" y="408" xlink:href="#p" />
<use x="144" y="408" xlink:href="#p" />
<use x="204" y="408" xlink:href="#p" />
<use x="240" y="408" xlink:href="#p" />
<use x="264" y="408" xlink:href="#p" />
<use x="276" y="408" xlink:href="#p" />
<use x="288" y="408" xlink:href="#p" />
<use x="300" y="408" xlink:href="#p" />
<use x="324" y="408" xlink:href="#p" />
<use x="336" y="408" xlink:href="#p" />
<use x="348" y="408" xlink:href="#p" />
<use x="372" y="408" xlink:href="#p" />
<use x="408" y="408" xlink:href="#p" />
<use x="12" y="420" xlink:href="#p" />
<use x="36" y="420" xlink:href="#p" />
<use x="48" y="420" xlink:href="#p" />
<use x="60" y="420" xlink:href="#p" />
<use x="84" y="420" xlink:href="#p" />
<use x="132" y="420" xlink:href="#p" />
<use x="144" y="420" xlink:href="#p" />
<use x="156" y="420" xlink:href="#p" />
<use x="168" y="420" xlink:href="#p" />
<use x="192" y="420" xlink:href="#p" />
<use x="204" y="420" xlink:href="#p" />
<use x="216" y="420" xlink:href="#p" />
<use x="240" y="420" xlink:href="#p" />
<use x="252" y="420" xlink:href="#p" />
<use x="264" y="420" xlink:href="#p" />
<use x="288" y="420" xlink:href="#p" />
<use x="336" y="420" xlink:href="#p" />
<use x="348" y="420" xlink:href="#p" />
<use x="384" y="420" xlink:href="#p" />
<use x="396" y="420" xlink:href="#p" />
<use x="408" y="420" xlink:href="#p" />
<use x="432" y="420" xlink:href="#p" />
<use x="444" y="420" xlink:href="#p" />
<use x="12" y="432" xlink:href="#p" />
<use x="84" y="432" xlink:href="#p" />
<use x="132" y="432" xlink:href="#p" />
<use x="144" y="432" xlink:href="#p" />
<use x="180" y="432" xlink:href="#p" />
<use x="192" y="432" xlink:href="#p" />
<use x="216" y="432" xlink:href="#p" />
<use x="252" y="432" xlink:href="#p" />
<use x="276" y="432" xlink:href="#p" />
<use x="300" y="432" xlink:href="#p" />
<use x="324" y="432" xlink:href="#p" />
<use x="336" y="432" xlink:href="#p" />
<use x="360" y="432" xlink:href="#p" />
<use x="384" y="432" xlink:href="#p" />
<use x="408" y="432" xlink:href="#p" />
<use x="420" y="432" xlink:href="#p" />
<use x="432" y="432" xlink:href="#p" />
<use x="444" y="432" xlink:href="#p" />
<use x="12" y="444" xlink:href="#p" />
<use x="24" y="444" xlink:href="#p" />
<use x="36" y="444" xlink:href="#p" />
<use x="48" y="444" xlink:href="#p" />
<use x="60" y="444" xlink:href="#p" />
<use x="72" y="444" xlink:href="#p" />
<use x="84" y="444" xlink:href="#p" />
<use x="120" y="444" xlink:href="#p" />
<use x="132" y="444" xlink:href="#p" />
<use x="168" y="444" xlink:href="#p" />
<use x="192" y="444" xlink:href="#p" />
<use x="204" y="444" xlink:href="#p" />
<use x="216" y="444" xlink:href="#p" />
<use x="288" y="444" xlink:href="#p" />
<use x="300" y="444" xlink:href="#p" />
<use x="348" y="444" xlink:href="#p" />
<use x="360" y="444" xlink:href="#p" />
<use x="372" y="444" xlink:href="#p" />
<use x="396" y="444" xlink:href="#p" />
<use x="408" y="444" xlink:href="#p" />
<use x="444" y="444" xlink:href="#p" />
</g>
</svg>
