<?xml version="1.0" standalone="no"?><!DOCTYPE svg PUBLIC "-//W3C//DTD SVG 1.1//EN" "http://www.w3.org/Graphics/SVG/1.1/DTD/svg11.dtd"><svg t="1519804723561" class="icon" style="" viewBox="0 0 1024 1024" version="1.1" xmlns="http://www.w3.org/2000/svg" p-id="5766" xmlns:xlink="http://www.w3.org/1999/xlink" width="200" height="200"><defs><style type="text/css"></style></defs><path d="M907.9 129.3L667 69c-8-2-16.1-2.4-23.9-1.2-7.9-1-16-0.3-24 2L397 135.3c-4.9-2.8-10.2-4.9-15.9-6.3l-241-60.3c-18.2-4.7-36.8-0.9-51.2 10.3-14.1 11-22.1 27.6-22.1 45.7V833c0 28.7 20.6 54.7 49.1 61.8l241 60.3c5 1.3 10.1 1.9 15.1 1.9 1.6 0 3.2-0.1 4.8-0.2 3.6 0.7 7.4 1.1 11.1 1.1 5.6 0 11.3-0.8 17-2.5l223.4-65.8c4.5 2.4 9.4 4.3 14.5 5.6l241 60.3c5 1.3 10.1 1.9 15.1 1.9 13.1 0 25.7-4.2 36.1-12.3 14.1-11 22.1-27.6 22.1-45.7V191.1c-0.1-28.7-20.7-54.7-49.2-61.8zM430.1 229.7l163.5-48.2v614l-163.5 48.2v-614z m-263.3-51.4L330 219.2v626.1l-163.2-40.9V178.3zM857 845.8l-163.2-40.9V178.8L857 219.6v626.2z" fill="#ebebeb" p-id="5767"></path></svg>