<?xml version="1.0" standalone="no"?><!DOCTYPE svg PUBLIC "-//W3C//DTD SVG 1.1//EN" "http://www.w3.org/Graphics/SVG/1.1/DTD/svg11.dtd"><svg class="icon" width="200px" height="200.00px" viewBox="0 0 1024 1024" version="1.1" xmlns="http://www.w3.org/2000/svg"><path fill="#8A919B" d="M886.710171 604.148723l-47.391357 0c-7.686053 27.878954-18.790972 54.349839-32.924877 78.861092l43.801599 43.861974c28.046776 28.045753 28.046776 73.53376 0 101.57542l-25.4046 25.409716c-28.046776 28.040636-73.53376 28.040636-101.57542 0l-44.088124-44.088124c-24.450878 13.911848-50.816363 24.793686-78.57866 32.364105l0 45.992497c0 39.655162-32.136931 71.792093-71.793116 71.792093l-35.897581 0c-39.651069 0-71.792093-32.136931-71.792093-71.792093L421.065941 842.132906c-27.76332-7.569396-54.122665-18.395976-78.579683-32.364105l-44.084031 44.088124c-28.045753 28.040636-73.53376 28.040636-101.57542 0l-25.409716-25.464975c-28.045753-28.046776-28.045753-73.529667 0-101.57542l43.805692-43.861974c-14.133905-24.511253-25.182542-50.982138-32.923854-78.861092l-47.396473 0c-39.655162 0-71.792093-32.136931-71.792093-71.792093l0-35.894512c0-39.655162 32.136931-71.796186 71.792093-71.796186l46.835701 0c7.458879-27.65178 18.058284-53.956889 31.80231-78.29725l-42.1244-42.179658c-28.045753-28.045753-28.045753-73.529667 0-101.574397l25.350364-25.41074c28.045753-28.040636 73.53376-28.040636 101.579513 0l41.337477 41.337477c25.238824-14.694677 52.497655-26.13831 81.326237-33.990139l0-48.234561c0-39.655162 32.136931-71.792093 71.792093-71.792093l35.898605 0c39.655162 0 71.792093 32.136931 71.792093 71.792093l0 48.234561c28.828582 7.852852 56.142671 19.35072 81.386612 34.046421l41.281195-41.337477c28.04166-28.04166 73.53069-28.04166 101.57542 0l25.406646 25.409716c28.045753 28.046776 28.045753 73.53376 0 101.57542l-42.065048 42.1244c13.740956 24.396643 24.340361 50.703799 31.80231 78.29725l46.831608 0c39.656185 0 71.792093 32.141024 71.792093 71.796186l0 35.894512C958.502263 572.011792 926.366356 604.148723 886.710171 604.148723L886.710171 604.148723zM510.807848 287.081391c-126.142955 0-228.39478 102.251825-228.39478 228.393757 0 126.142955 102.251825 228.393757 228.39478 228.393757 126.141932 0 228.444922-102.250802 228.444922-228.393757C739.253794 389.333216 636.94978 287.081391 510.807848 287.081391L510.807848 287.081391zM510.807848 603.02718c-49.583279 0-89.799212-40.215934-89.799212-89.795119 0-49.582255 40.215934-89.743954 89.799212-89.743954 49.579185 0 89.738837 40.215934 89.738837 89.743954C600.547709 562.811246 560.387034 603.02718 510.807848 603.02718L510.807848 603.02718zM510.807848 603.02718" /></svg>